<svg version="1.2" xmlns="http://www.w3.org/2000/svg" viewBox="0 0 250 250" width="250" height="250"><defs><linearGradient id="P" gradientUnits="userSpaceOnUse"/><linearGradient id="g1" x2="1" href="#P" gradientTransform="matrix(288.354,233.302,-248.835,307.552,-6.865,4.771)"><stop stop-color="#ff4d4d"/><stop offset="1" stop-color="#991b1b"/></linearGradient><linearGradient id="g2" x2="1" href="#P" gradientTransform="matrix(44.906,54.969,-62.556,51.105,0,100.75)"><stop stop-color="#ff4d4d"/><stop offset="1" stop-color="#991b1b"/></linearGradient><linearGradient id="g3" x2="1" href="#P" gradientTransform="matrix(52.229,46.969,-41.209,45.824,201.927,103.677)"><stop stop-color="#ff4d4d"/><stop offset="1" stop-color="#991b1b"/></linearGradient></defs><style>.a{fill:url(#g1)}.b{fill:url(#g2)}.c{fill:url(#g3)}.d{fill:#ff4d4d}.e{fill:#050810}.f{fill:#00e5cc}</style><path class="a" d="m125 26.8c-65.9-0.1-98.9 54.9-98.9 98.9 0 43.9 33 87.9 65.9 98.9v21.9h22v-21.9c0 0 11 4.3 22 0v21.9h22v-21.9c32.9-11 65.9-55 65.9-98.9 0-44-33-99-98.9-99z"/><path class="b" d="m37.1 103.7c-33-11-44 11-33 32.9 11 22 33 11 44-10.9 6.6-15.4 0-22-11-22z"/><path class="c" d="m212.9 103.7c33-11 44 11 33 32.9-11 22-33 11-44-10.9-6.6-15.4 0-22 11-22z"/><path class="d" d="m57.4 19.5c4.9-2.9 10.8-2.4 16.8 0.4 6 2.8 12.7 8.1 20.2 15.5 0.6 0.6 0.9 1.5 0.9 2.3 0 0.9-0.3 1.8-0.9 2.4-0.7 0.6-1.5 0.9-2.4 0.9-0.8 0-1.7-0.3-2.3-0.9-7.2-7.2-13.3-11.9-18.3-14.2-4.9-2.3-8.3-2.1-10.6-0.7-0.8 0.4-1.6 0.4-2.4 0.2-0.9-0.2-1.5-0.7-2-1.5-0.4-0.7-0.5-1.5-0.4-2.3 0.2-0.9 0.7-1.6 1.4-2.1zm118.4 0.4c6-2.8 11.9-3.3 16.8-0.4 0.7 0.5 1.2 1.2 1.4 2.1 0.1 0.8 0 1.6-0.4 2.3-0.5 0.8-1.1 1.3-2 1.5-0.8 0.2-1.6 0.2-2.4-0.2-2.3-1.4-5.7-1.6-10.6 0.7-5 2.3-11.1 7-18.3 14.2-0.6 0.6-1.5 0.9-2.3 0.9-0.9 0-1.7-0.3-2.4-0.9-0.6-0.6-0.9-1.5-0.9-2.4 0-0.8 0.3-1.7 0.9-2.3 7.5-7.4 14.2-12.7 20.2-15.5z"/><path class="e" d="m92 94.9c3.5 0 6.9-1.4 9.4-3.9 2.4-2.5 3.8-5.8 3.8-9.3 0-3.5-1.4-6.9-3.8-9.3-2.5-2.5-5.9-3.9-9.4-3.9-3.5 0-6.8 1.4-9.3 3.9-2.5 2.4-3.9 5.8-3.9 9.3 0 3.5 1.4 6.8 3.9 9.3 2.5 2.5 5.8 3.9 9.3 3.9zm66 0c3.5 0 6.8-1.4 9.3-3.9 2.5-2.5 3.9-5.8 3.9-9.3 0-3.5-1.4-6.9-3.9-9.3-2.5-2.5-5.8-3.9-9.3-3.9-3.5 0-6.9 1.4-9.4 3.9-2.4 2.4-3.8 5.8-3.8 9.3 0 3.5 1.4 6.8 3.8 9.3 2.5 2.5 5.9 3.9 9.4 3.9z"/><path class="f" d="m94.2 85c1.5 0 2.9-0.6 3.9-1.6 1-1 1.6-2.4 1.6-3.9 0-1.5-0.6-2.9-1.6-3.9-1-1-2.4-1.6-3.9-1.6-1.4 0-2.8 0.6-3.9 1.6-1 1-1.6 2.4-1.6 3.9 0 1.5 0.6 2.8 1.6 3.9 1.1 1 2.5 1.6 3.9 1.6zm66 0c1.4 0 2.8-0.6 3.8-1.6 1.1-1 1.7-2.4 1.7-3.9 0-1.5-0.6-2.8-1.7-3.9-1-1-2.4-1.6-3.8-1.6-1.5 0-2.9 0.6-3.9 1.6-1 1-1.6 2.4-1.6 3.9 0 1.5 0.6 2.9 1.6 3.9 1 1 2.4 1.6 3.9 1.6z"/></svg>